<svg width="25" height="26" viewBox="0 0 25 26" fill="none" xmlns="http://www.w3.org/2000/svg">
<path d="M13.0833 22.1875C12.9133 22.3096 12.7093 22.3753 12.5 22.3753C12.2907 22.3753 12.0867 22.3096 11.9167 22.1875C6.88647 18.6021 1.54793 11.2271 6.94481 5.89792C8.42641 4.44047 10.4217 3.62409 12.5 3.625C14.5833 3.625 16.5823 4.44271 18.0552 5.89688C23.4521 11.226 18.1136 18.6 13.0833 22.1875Z" stroke="#4968F7" stroke-width="1.5625" stroke-linecap="round" stroke-linejoin="round"/>
<path d="M12.5 12.9999C13.0525 12.9999 13.5824 12.7804 13.9731 12.3897C14.3638 11.999 14.5833 11.4691 14.5833 10.9166C14.5833 10.3641 14.3638 9.83415 13.9731 9.44345C13.5824 9.05275 13.0525 8.83325 12.5 8.83325C11.9474 8.83325 11.4175 9.05275 11.0268 9.44345C10.6361 9.83415 10.4166 10.3641 10.4166 10.9166C10.4166 11.4691 10.6361 11.999 11.0268 12.3897C11.4175 12.7804 11.9474 12.9999 12.5 12.9999Z" stroke="#4968F7" stroke-width="1.5625" stroke-linecap="round" stroke-linejoin="round"/>
</svg>
