<svg width="25" height="26" viewBox="0 0 25 26" fill="none" xmlns="http://www.w3.org/2000/svg">
<path d="M3.90836 7.71362C3.90282 7.61116 3.87715 7.5108 3.83282 7.41826C3.7885 7.32572 3.72638 7.24282 3.65001 7.17429C3.57364 7.10575 3.48453 7.05294 3.38775 7.01885C3.29097 6.98475 3.18842 6.97006 3.08596 6.9756C2.9835 6.98114 2.88314 7.00681 2.7906 7.05113C2.69806 7.09546 2.61516 7.15758 2.54663 7.23395C2.4781 7.31032 2.42528 7.39943 2.39119 7.49621C2.3571 7.59299 2.3424 7.69554 2.34794 7.798L3.90836 7.71362ZM4.91461 3.72091C4.7778 3.8721 4.70552 4.07078 4.7132 4.27453C4.72088 4.47828 4.80792 4.67096 4.95572 4.81142C5.10352 4.95188 5.30037 5.02899 5.50425 5.02628C5.70813 5.02358 5.90287 4.94128 6.0469 4.79695L4.91461 3.72091ZM11.1084 21.1376C11.1952 21.1936 11.2923 21.2318 11.3941 21.2499C11.4958 21.2681 11.6002 21.266 11.701 21.2435C11.8019 21.2211 11.8974 21.1789 11.9818 21.1193C12.0663 21.0598 12.1381 20.984 12.1931 20.8965C12.2481 20.809 12.2851 20.7115 12.3022 20.6095C12.3192 20.5076 12.3158 20.4033 12.2922 20.3027C12.2686 20.2021 12.2253 20.1071 12.1648 20.0233C12.1043 19.9396 12.0277 19.8686 11.9396 19.8147L11.1084 21.1376ZM15.7427 21.3938C15.5398 21.3514 15.3284 21.3914 15.1549 21.5049C14.9814 21.6184 14.8601 21.7961 14.8177 21.999C14.7753 22.202 14.8153 22.4134 14.9288 22.5869C15.0423 22.7603 15.22 22.8816 15.4229 22.924L15.7427 21.3938ZM16.2969 16.6917L16.7709 16.1917L15.6375 15.1157L15.1636 15.6157L16.2969 16.6917ZM18.3323 15.9813L20.3219 17.1272L21.1021 15.773L19.1115 14.6272L18.3323 15.9813ZM20.7063 19.5022L19.2261 21.0595L20.3594 22.1365L21.8386 20.5782L20.7063 19.5022ZM8.70732 17.124C4.66982 12.873 3.99273 9.28654 3.90836 7.71362L2.34794 7.798C2.45211 9.72508 3.26877 13.6667 7.57502 18.2001L8.70732 17.124ZM10.1406 10.2105L10.4386 9.89591L9.30627 8.81987L9.00732 9.13445L10.1406 10.2105ZM10.674 5.97925L9.36044 4.12195L8.0844 5.02404L9.3969 6.88133L10.674 5.97925ZM9.57294 9.67195C9.38547 9.49127 9.19623 9.31244 9.00523 9.1355L9.00315 9.13758L9.00002 9.1407L8.94794 9.20112C8.84594 9.33635 8.76515 9.48633 8.70836 9.64591C8.60627 9.93237 8.55211 10.3115 8.62086 10.7845C8.75627 11.7136 9.36565 12.9626 10.9563 14.6386L12.0896 13.5615C10.6021 11.9959 10.2354 11.0324 10.1667 10.5574C10.1334 10.3282 10.1667 10.2084 10.1802 10.1699L10.1886 10.1501L10.1594 10.1886L10.1406 10.2105L9.57294 9.67195ZM10.9563 14.6376C12.5427 16.3084 13.7406 16.9647 14.6542 17.1136C15.124 17.1897 15.5042 17.1282 15.7917 17.0147C15.9515 16.9526 16.1 16.8646 16.2313 16.7542L16.2677 16.7188L16.2823 16.7042L16.2896 16.698L16.2927 16.6949L16.2938 16.6928C16.2938 16.6928 16.2959 16.6917 15.7292 16.1532C15.1625 15.6157 15.1636 15.6147 15.1636 15.6136L15.1656 15.6126L15.1677 15.6095L15.174 15.6042L15.2229 15.5605C15.2327 15.5549 15.2309 15.5553 15.2177 15.5615C15.1969 15.5699 15.1031 15.6032 14.9052 15.5709C14.4865 15.5022 13.5823 15.1334 12.0896 13.5615L10.9563 14.6376ZM9.36044 4.12195C8.30419 2.6282 6.19169 2.37508 4.91461 3.72091L6.0469 4.79695C6.59169 4.22404 7.55107 4.26883 8.0844 5.02404L9.36044 4.12195ZM19.2261 21.0595C18.9354 21.3657 18.6323 21.5303 18.3365 21.5595L18.4896 23.1136C19.2677 23.0376 19.8979 22.623 20.3594 22.1365L19.2261 21.0595ZM10.4386 9.89591C11.4469 8.83445 11.5177 7.17404 10.674 5.97925L9.39794 6.88133C9.83752 7.5032 9.76982 8.33237 9.30627 8.81987L10.4386 9.89591ZM20.3219 17.1272C21.1771 17.6199 21.3448 18.8303 20.7063 19.5022L21.8386 20.5782C23.1979 19.147 22.8021 16.7522 21.1021 15.773L20.3219 17.1272ZM16.7709 16.1917C17.1719 15.7688 17.7979 15.674 18.3323 15.9813L19.1115 14.6272C17.9667 13.9688 16.549 14.1574 15.6375 15.1157L16.7709 16.1917ZM11.9396 19.8147C10.9156 19.1709 9.82502 18.3001 8.70732 17.124L7.57502 18.2001C8.77711 19.4657 9.96773 20.4209 11.1084 21.1376L11.9396 19.8147ZM18.3354 21.5595C17.4678 21.6351 16.5937 21.5793 15.7427 21.3938L15.4229 22.924C16.4297 23.1416 17.4637 23.2055 18.4896 23.1136L18.3354 21.5595Z" fill="#4968F7"/>
</svg>
