<svg width="30" height="30" viewBox="0 0 30 30" fill="none" xmlns="http://www.w3.org/2000/svg">
<path d="M4.69003 8.65625C4.68338 8.5333 4.65258 8.41287 4.59939 8.30182C4.5462 8.19077 4.47165 8.09129 4.38001 8.00905C4.28837 7.92682 4.18143 7.86343 4.0653 7.82252C3.94916 7.78161 3.82611 7.76398 3.70316 7.77063C3.5802 7.77728 3.45977 7.80808 3.34872 7.86127C3.23767 7.91446 3.13819 7.98901 3.05595 8.08065C2.97372 8.17229 2.91033 8.27923 2.86942 8.39536C2.82852 8.5115 2.81088 8.63455 2.81753 8.7575L4.69003 8.65625ZM5.89753 3.865C5.73336 4.04643 5.64663 4.28485 5.65584 4.52935C5.66506 4.77385 5.7695 5.00506 5.94686 5.17361C6.12422 5.34216 6.36045 5.43469 6.6051 5.43145C6.84976 5.42821 7.08345 5.32945 7.25628 5.15625L5.89753 3.865ZM13.33 24.765C13.4343 24.8322 13.5508 24.878 13.6729 24.8998C13.795 24.9217 13.9202 24.9191 14.0413 24.8922C14.1623 24.8652 14.2768 24.8146 14.3782 24.7431C14.4795 24.6716 14.5657 24.5808 14.6317 24.4758C14.6977 24.3707 14.7422 24.2537 14.7626 24.1314C14.783 24.009 14.779 23.8839 14.7507 23.7631C14.7224 23.6424 14.6704 23.5284 14.5978 23.4279C14.5251 23.3274 14.4333 23.2423 14.3275 23.1775L13.33 24.765ZM18.8913 25.0725C18.6478 25.0216 18.394 25.0695 18.1859 25.2057C17.9777 25.3419 17.8322 25.5553 17.7813 25.7988C17.7304 26.0423 17.7783 26.296 17.9145 26.5042C18.0507 26.7123 18.264 26.8579 18.5075 26.9088L18.8913 25.0725ZM19.5563 19.43L20.125 18.83L18.765 17.5388L18.1963 18.1388L19.5563 19.43ZM21.9988 18.5775L24.3863 19.9525L25.3225 18.3275L22.9338 16.9525L21.9988 18.5775ZM24.8475 22.8025L23.0713 24.6713L24.4313 25.9638L26.2063 24.0938L24.8475 22.8025ZM10.4488 19.9488C5.60378 14.8475 4.79128 10.5438 4.69003 8.65625L2.81753 8.7575C2.94253 11.07 3.92253 15.8 9.09003 21.24L10.4488 19.9488ZM12.1688 11.6525L12.5263 11.275L11.1675 9.98375L10.8088 10.3613L12.1688 11.6525ZM12.8088 6.575L11.2325 4.34625L9.70128 5.42875L11.2763 7.6575L12.8088 6.575ZM11.4875 11.0063C11.2626 10.7894 11.0355 10.5748 10.8063 10.3625L10.8038 10.365L10.8 10.3688L10.7375 10.4413C10.6151 10.6035 10.5182 10.7835 10.45 10.975C10.3275 11.3188 10.2625 11.7738 10.345 12.3413C10.5075 13.4563 11.2388 14.955 13.1475 16.9663L14.5075 15.6738C12.7225 13.795 12.2825 12.6388 12.2 12.0688C12.16 11.7938 12.2 11.65 12.2163 11.6038L12.2263 11.58L12.1913 11.6263L12.1688 11.6525L11.4875 11.0063ZM13.1475 16.965C15.0513 18.97 16.4888 19.7575 17.585 19.9363C18.1488 20.0275 18.605 19.9538 18.95 19.8175C19.1418 19.743 19.32 19.6374 19.4775 19.505L19.5213 19.4625L19.5388 19.445L19.5475 19.4375L19.5513 19.4338L19.5525 19.4313C19.5525 19.4313 19.555 19.43 18.875 18.7838C18.195 18.1388 18.1963 18.1375 18.1963 18.1363L18.1988 18.135L18.2013 18.1313L18.2088 18.125L18.2675 18.0725C18.2792 18.0658 18.2771 18.0663 18.2613 18.0738C18.2363 18.0838 18.1238 18.1238 17.8863 18.085C17.3838 18.0025 16.2988 17.56 14.5075 15.6738L13.1475 16.965ZM11.2325 4.34625C9.96503 2.55375 7.43003 2.25 5.89753 3.865L7.25628 5.15625C7.91003 4.46875 9.06128 4.5225 9.70128 5.42875L11.2325 4.34625ZM23.0713 24.6713C22.7225 25.0388 22.3588 25.2363 22.0038 25.2713L22.1875 27.1363C23.1213 27.045 23.8775 26.5475 24.4313 25.9638L23.0713 24.6713ZM12.5263 11.275C13.7363 10.0013 13.8213 8.00875 12.8088 6.575L11.2775 7.6575C11.805 8.40375 11.7238 9.39875 11.1675 9.98375L12.5263 11.275ZM24.3863 19.9525C25.4125 20.5438 25.6138 21.9963 24.8475 22.8025L26.2063 24.0938C27.8375 22.3763 27.3625 19.5025 25.3225 18.3275L24.3863 19.9525ZM20.125 18.83C20.6063 18.3225 21.3575 18.2088 21.9988 18.5775L22.9338 16.9525C21.56 16.1625 19.8588 16.3888 18.765 17.5388L20.125 18.83ZM14.3275 23.1775C13.0988 22.405 11.79 21.36 10.4488 19.9488L9.09003 21.24C10.5325 22.7588 11.9613 23.905 13.33 24.765L14.3275 23.1775ZM22.0025 25.2713C20.9614 25.3621 19.9124 25.2951 18.8913 25.0725L18.5075 26.9088C19.7157 27.1698 20.9564 27.2465 22.1875 27.1363L22.0025 25.2713Z" fill="black"/>
</svg>
