<svg width="26" height="26" viewBox="0 0 26 26" fill="none" xmlns="http://www.w3.org/2000/svg">
<path d="M2.42218 6.4954C2.41536 6.36929 2.38376 6.24576 2.3292 6.13187C2.27463 6.01797 2.19817 5.91593 2.10417 5.83158C2.01016 5.74723 1.90047 5.68222 1.78134 5.64026C1.66221 5.5983 1.53598 5.58022 1.40986 5.58703C1.28374 5.59385 1.1602 5.62544 1.04629 5.68C0.932379 5.73456 0.830332 5.81102 0.745974 5.90501C0.661616 5.99901 0.596599 6.10869 0.554635 6.22781C0.512672 6.34693 0.494583 6.47314 0.501403 6.59925L2.42218 6.4954ZM3.66081 1.58113C3.49241 1.76721 3.40343 2.01175 3.41289 2.26253C3.42234 2.51331 3.52947 2.75045 3.71141 2.92333C3.89334 3.09621 4.13566 3.19112 4.38662 3.18779C4.63758 3.18447 4.8773 3.08317 5.05459 2.90553L3.66081 1.58113ZM11.2849 23.0178C11.3919 23.0867 11.5114 23.1337 11.6366 23.1561C11.7619 23.1785 11.8903 23.1758 12.0145 23.1482C12.1387 23.1206 12.2561 23.0686 12.3601 22.9953C12.4641 22.922 12.5525 22.8288 12.6201 22.7211C12.6878 22.6134 12.7335 22.4933 12.7544 22.3679C12.7754 22.2424 12.7712 22.114 12.7422 21.9902C12.7132 21.8663 12.6599 21.7495 12.5854 21.6464C12.5108 21.5432 12.4166 21.4559 12.3081 21.3895L11.2849 23.0178ZM16.9895 23.3332C16.7398 23.281 16.4795 23.3301 16.2659 23.4698C16.0524 23.6095 15.9031 23.8283 15.8509 24.0781C15.7987 24.3278 15.8479 24.5881 15.9876 24.8016C16.1273 25.0151 16.3461 25.1644 16.5959 25.2166L16.9895 23.3332ZM17.6717 17.5458L18.2551 16.9304L16.86 15.606L16.2766 16.2214L17.6717 17.5458ZM20.1772 16.6714L22.6262 18.0817L23.5866 16.415L21.1363 15.0047L20.1772 16.6714ZM23.0993 21.0049L21.2773 22.9216L22.6724 24.2473L24.4931 22.3293L23.0993 21.0049ZM8.32939 18.0779C3.35948 12.8456 2.52604 8.43137 2.42218 6.4954L0.501403 6.59925C0.629626 8.97113 1.63489 13.8226 6.93561 19.4023L8.32939 18.0779ZM10.0937 9.56858L10.4604 9.18139L9.06667 7.85699L8.69867 8.24418L10.0937 9.56858ZM10.7502 4.36071L9.13335 2.07473L7.56262 3.18503L9.17822 5.471L10.7502 4.36071ZM9.39492 8.90574C9.16416 8.68336 8.93121 8.46325 8.69611 8.24546L8.69354 8.24803L8.6897 8.25187L8.62558 8.32623C8.50003 8.49267 8.40058 8.67728 8.33067 8.87369C8.20501 9.22626 8.13834 9.69295 8.22297 10.275C8.38966 11.4186 9.13976 12.9559 11.0977 15.0188L12.4928 13.6931C10.6618 11.7661 10.2104 10.5802 10.1258 9.99552C10.0848 9.71346 10.1258 9.56602 10.1425 9.51858L10.1527 9.49422L10.1168 9.54166L10.0937 9.56858L9.39492 8.90574ZM11.0977 15.0175C13.0505 17.074 14.5251 17.8817 15.6496 18.065C16.2279 18.1586 16.6959 18.083 17.0498 17.9432C17.2465 17.8668 17.4293 17.7585 17.5909 17.6227L17.6358 17.5791L17.6537 17.5612L17.6627 17.5535L17.6666 17.5496L17.6678 17.5471C17.6678 17.5471 17.6704 17.5458 16.9729 16.8829C16.2753 16.2214 16.2766 16.2201 16.2766 16.2188L16.2792 16.2175L16.2818 16.2137L16.2894 16.2073L16.3497 16.1534C16.3617 16.1466 16.3595 16.147 16.3433 16.1547C16.3177 16.165 16.2023 16.206 15.9586 16.1663C15.4432 16.0816 14.3302 15.6278 12.4928 13.6931L11.0977 15.0175ZM9.13335 2.07473C7.83317 0.236206 5.23282 -0.0753429 3.66081 1.58113L5.05459 2.90553C5.72519 2.20038 6.90612 2.25551 7.56262 3.18503L9.13335 2.07473ZM21.2773 22.9216C20.9196 23.2985 20.5464 23.5011 20.1823 23.537L20.3708 25.4499C21.3286 25.3563 22.1043 24.846 22.6724 24.2473L21.2773 22.9216ZM10.4604 9.18139C11.7016 7.87494 11.7888 5.83127 10.7502 4.36071L9.17951 5.471C9.72061 6.23642 9.63726 7.25697 9.06667 7.85699L10.4604 9.18139ZM22.6262 18.0817C23.6789 18.6881 23.8854 20.1779 23.0993 21.0049L24.4931 22.3293C26.1664 20.5677 25.6792 17.6201 23.5866 16.415L22.6262 18.0817ZM18.2551 16.9304C18.7488 16.4099 19.5194 16.2932 20.1772 16.6714L21.1363 15.0047C19.7271 14.1944 17.982 14.4264 16.86 15.606L18.2551 16.9304ZM12.3081 21.3895C11.0477 20.5972 9.70522 19.5253 8.32939 18.0779L6.93561 19.4023C8.4153 20.96 9.88088 22.1357 11.2849 23.0178L12.3081 21.3895ZM20.181 23.537C19.113 23.6302 18.037 23.5615 16.9895 23.3332L16.5959 25.2166C17.8352 25.4843 19.1079 25.563 20.3708 25.4499L20.181 23.537Z" fill="#679FF4"/>
</svg>
